<svg width="785" height="76" viewBox="0 0 785 76" fill="none" xmlns="http://www.w3.org/2000/svg">
<path d="M119.357 57.896C115.346 57.896 112.381 56.7227 110.461 54.376C108.584 52.0293 107.645 48.7653 107.645 44.584V25.192H120.381V41.832C120.381 45.544 121.81 47.4 124.669 47.4C127.698 47.4 129.213 45.416 129.213 41.448V25.192H141.821V57H129.213V52.264C127.549 56.0187 124.264 57.896 119.357 57.896ZM163.172 58.088C158.052 58.088 154.041 57.128 151.14 55.208C148.238 53.288 146.788 50.728 146.788 47.528H159.268C159.268 48.424 159.63 49.1493 160.356 49.704C161.081 50.2587 162.041 50.536 163.236 50.536C164.089 50.536 164.772 50.344 165.284 49.96C165.838 49.5333 166.116 48.9787 166.116 48.296C166.116 47.272 165.39 46.568 163.94 46.184L156.388 44.456C153.486 43.816 151.246 42.6853 149.668 41.064C148.132 39.4 147.364 37.3307 147.364 34.856C147.364 31.528 148.686 28.904 151.332 26.984C154.02 25.0213 157.668 24.04 162.276 24.04C167.396 24.04 171.3 24.9147 173.988 26.664C176.676 28.3707 178.02 30.824 178.02 34.024H165.668C165.668 32.1893 164.537 31.272 162.276 31.272C161.465 31.272 160.804 31.4427 160.292 31.784C159.78 32.1253 159.524 32.5947 159.524 33.192C159.524 34.3867 160.42 35.1973 162.212 35.624L169.7 37.544C175.588 39.0373 178.532 42.088 178.532 46.696C178.532 50.1947 177.145 52.968 174.372 55.016C171.598 57.064 167.865 58.088 163.172 58.088ZM217.69 39.464C217.69 41.0427 217.583 42.6 217.37 44.136H193.946C194.031 45.8 194.607 47.1013 195.674 48.04C196.783 48.9787 198.234 49.448 200.026 49.448C202.714 49.448 204.378 48.6587 205.018 47.08H217.178C216.623 50.4507 214.789 53.1387 211.674 55.144C208.559 57.1067 204.677 58.088 200.026 58.088C194.223 58.088 189.658 56.616 186.33 53.672C183.045 50.6853 181.402 46.504 181.402 41.128C181.402 35.8373 183.066 31.6773 186.394 28.648C189.722 25.576 194.181 24.04 199.77 24.04C205.061 24.04 209.37 25.4693 212.698 28.328C216.026 31.1867 217.69 34.8987 217.69 39.464ZM193.946 37.224H205.146C205.103 35.4747 204.613 34.1093 203.674 33.128C202.735 32.1467 201.391 31.656 199.642 31.656C197.935 31.656 196.57 32.168 195.546 33.192C194.565 34.216 194.031 35.56 193.946 37.224ZM222.002 43.176V33.704H242.866V43.176H222.002ZM263.234 58.088C258.114 58.088 254.103 57.128 251.202 55.208C248.301 53.288 246.85 50.728 246.85 47.528H259.33C259.33 48.424 259.693 49.1493 260.418 49.704C261.143 50.2587 262.103 50.536 263.298 50.536C264.151 50.536 264.834 50.344 265.346 49.96C265.901 49.5333 266.178 48.9787 266.178 48.296C266.178 47.272 265.453 46.568 264.002 46.184L256.45 44.456C253.549 43.816 251.309 42.6853 249.73 41.064C248.194 39.4 247.426 37.3307 247.426 34.856C247.426 31.528 248.749 28.904 251.394 26.984C254.082 25.0213 257.73 24.04 262.338 24.04C267.458 24.04 271.362 24.9147 274.05 26.664C276.738 28.3707 278.082 30.824 278.082 34.024H265.73C265.73 32.1893 264.599 31.272 262.338 31.272C261.527 31.272 260.866 31.4427 260.354 31.784C259.842 32.1253 259.586 32.5947 259.586 33.192C259.586 34.3867 260.482 35.1973 262.274 35.624L269.762 37.544C275.65 39.0373 278.594 42.088 278.594 46.696C278.594 50.1947 277.207 52.968 274.434 55.016C271.661 57.064 267.927 58.088 263.234 58.088ZM295.107 57.896C291.096 57.896 288.131 56.7227 286.211 54.376C284.334 52.0293 283.395 48.7653 283.395 44.584V25.192H296.131V41.832C296.131 45.544 297.56 47.4 300.419 47.4C303.448 47.4 304.963 45.416 304.963 41.448V25.192H317.571V57H304.963V52.264C303.299 56.0187 300.014 57.896 295.107 57.896ZM347.498 24.296C351.679 24.296 355.092 25.8533 357.738 28.968C360.383 32.04 361.706 36.0933 361.706 41.128C361.706 46.12 360.362 50.1733 357.674 53.288C354.986 56.36 351.53 57.896 347.306 57.896C344.916 57.896 342.826 57.3627 341.034 56.296C339.284 55.1867 338.047 53.8427 337.322 52.264V69.16H324.778V25.192H337.322V29.928C338.047 28.3067 339.306 26.9627 341.098 25.896C342.932 24.8293 345.066 24.296 347.498 24.296ZM338.474 46.056C339.583 47.2933 341.012 47.912 342.762 47.912C344.511 47.912 345.94 47.272 347.05 45.992C348.159 44.712 348.714 43.0907 348.714 41.128C348.714 39.1227 348.159 37.5013 347.05 36.264C345.94 35.0267 344.511 34.408 342.762 34.408C341.012 34.408 339.583 35.0267 338.474 36.264C337.364 37.5013 336.81 39.1227 336.81 41.128C336.81 43.1333 337.364 44.776 338.474 46.056ZM379.313 57.896C374.918 57.896 371.419 56.3387 368.817 53.224C366.214 50.1093 364.913 46.0773 364.913 41.128C364.913 36.1787 366.235 32.1467 368.881 29.032C371.526 25.8747 375.025 24.296 379.377 24.296C381.766 24.296 383.814 24.808 385.521 25.832C387.227 26.856 388.465 28.2213 389.233 29.928V25.192H401.841V57H389.233V52.264C388.507 53.928 387.249 55.2933 385.457 56.36C383.707 57.384 381.659 57.896 379.313 57.896ZM383.793 47.784C385.627 47.784 387.078 47.1653 388.145 45.928C389.254 44.648 389.809 43.048 389.809 41.128C389.809 39.1653 389.254 37.5653 388.145 36.328C387.078 35.048 385.627 34.408 383.793 34.408C382.001 34.408 380.571 35.048 379.505 36.328C378.438 37.5653 377.905 39.1653 377.905 41.128C377.905 43.0907 378.438 44.6907 379.505 45.928C380.571 47.1653 382.001 47.784 383.793 47.784ZM431.81 24.296C435.991 24.296 439.405 25.8533 442.05 28.968C444.695 32.04 446.018 36.0933 446.018 41.128C446.018 46.12 444.674 50.1733 441.986 53.288C439.298 56.36 435.842 57.896 431.618 57.896C429.229 57.896 427.138 57.3627 425.346 56.296C423.597 55.1867 422.359 53.8427 421.634 52.264V57H409.09V12.072H421.634V29.928C422.359 28.3067 423.618 26.9627 425.41 25.896C427.245 24.8293 429.378 24.296 431.81 24.296ZM422.786 46.056C423.895 47.2933 425.325 47.912 427.074 47.912C428.823 47.912 430.253 47.272 431.362 45.992C432.471 44.712 433.026 43.0907 433.026 41.128C433.026 39.1227 432.471 37.5013 431.362 36.264C430.253 35.0267 428.823 34.408 427.074 34.408C425.325 34.408 423.895 35.0267 422.786 36.264C421.677 37.5013 421.122 39.1227 421.122 41.128C421.122 43.1333 421.677 44.776 422.786 46.056ZM463.625 57.896C459.23 57.896 455.732 56.3387 453.129 53.224C450.526 50.1093 449.225 46.0773 449.225 41.128C449.225 36.1787 450.548 32.1467 453.193 29.032C455.838 25.8747 459.337 24.296 463.689 24.296C466.078 24.296 468.126 24.808 469.833 25.832C471.54 26.856 472.777 28.2213 473.545 29.928V25.192H486.153V57H473.545V52.264C472.82 53.928 471.561 55.2933 469.769 56.36C468.02 57.384 465.972 57.896 463.625 57.896ZM468.105 47.784C469.94 47.784 471.39 47.1653 472.457 45.928C473.566 44.648 474.121 43.048 474.121 41.128C474.121 39.1653 473.566 37.5653 472.457 36.328C471.39 35.048 469.94 34.408 468.105 34.408C466.313 34.408 464.884 35.048 463.817 36.328C462.75 37.5653 462.217 39.1653 462.217 41.128C462.217 43.0907 462.75 44.6907 463.817 45.928C464.884 47.1653 466.313 47.784 468.105 47.784ZM507.547 58.088C502.427 58.088 498.416 57.128 495.515 55.208C492.613 53.288 491.163 50.728 491.163 47.528H503.643C503.643 48.424 504.005 49.1493 504.731 49.704C505.456 50.2587 506.416 50.536 507.611 50.536C508.464 50.536 509.147 50.344 509.659 49.96C510.213 49.5333 510.491 48.9787 510.491 48.296C510.491 47.272 509.765 46.568 508.315 46.184L500.763 44.456C497.861 43.816 495.621 42.6853 494.043 41.064C492.507 39.4 491.739 37.3307 491.739 34.856C491.739 31.528 493.061 28.904 495.707 26.984C498.395 25.0213 502.043 24.04 506.651 24.04C511.771 24.04 515.675 24.9147 518.363 26.664C521.051 28.3707 522.395 30.824 522.395 34.024H510.043C510.043 32.1893 508.912 31.272 506.651 31.272C505.84 31.272 505.179 31.4427 504.667 31.784C504.155 32.1253 503.899 32.5947 503.899 33.192C503.899 34.3867 504.795 35.1973 506.587 35.624L514.075 37.544C519.963 39.0373 522.907 42.088 522.907 46.696C522.907 50.1947 521.52 52.968 518.747 55.016C515.973 57.064 512.24 58.088 507.547 58.088ZM562.065 39.464C562.065 41.0427 561.958 42.6 561.745 44.136H538.321C538.406 45.8 538.982 47.1013 540.049 48.04C541.158 48.9787 542.609 49.448 544.401 49.448C547.089 49.448 548.753 48.6587 549.393 47.08H561.553C560.998 50.4507 559.164 53.1387 556.049 55.144C552.934 57.1067 549.052 58.088 544.401 58.088C538.598 58.088 534.033 56.616 530.705 53.672C527.42 50.6853 525.777 46.504 525.777 41.128C525.777 35.8373 527.441 31.6773 530.769 28.648C534.097 25.576 538.556 24.04 544.145 24.04C549.436 24.04 553.745 25.4693 557.073 28.328C560.401 31.1867 562.065 34.8987 562.065 39.464ZM538.321 37.224H549.521C549.478 35.4747 548.988 34.1093 548.049 33.128C547.11 32.1467 545.766 31.656 544.017 31.656C542.31 31.656 540.945 32.168 539.921 33.192C538.94 34.216 538.406 35.56 538.321 37.224ZM566.377 43.176V33.704H587.241V43.176H566.377ZM616.313 24.296C624.078 24.296 627.961 28.7333 627.961 37.608V57H615.161V40.808C615.161 36.7973 613.689 34.792 610.745 34.792C607.588 34.792 606.009 36.8827 606.009 41.064V57H593.465V12.2H606.009V29.864C607.716 26.152 611.15 24.296 616.313 24.296ZM650.711 58.088C645.121 58.088 640.641 56.5307 637.271 53.416C633.9 50.2587 632.215 46.1413 632.215 41.064C632.215 35.9867 633.9 31.8907 637.271 28.776C640.641 25.6187 645.121 24.04 650.711 24.04C656.343 24.04 660.844 25.6187 664.215 28.776C667.585 31.8907 669.271 35.9867 669.271 41.064C669.271 46.1413 667.585 50.2587 664.215 53.416C660.844 56.5307 656.343 58.088 650.711 58.088ZM650.711 47.784C652.545 47.784 653.996 47.1653 655.063 45.928C656.129 44.6907 656.663 43.0693 656.663 41.064C656.663 39.0587 656.129 37.4373 655.063 36.2C653.996 34.9627 652.545 34.344 650.711 34.344C648.919 34.344 647.468 34.984 646.359 36.264C645.292 37.5013 644.759 39.1013 644.759 41.064C644.759 43.0267 645.292 44.648 646.359 45.928C647.468 47.1653 648.919 47.784 650.711 47.784ZM691.211 58.088C685.621 58.088 681.141 56.5307 677.771 53.416C674.4 50.2587 672.715 46.1413 672.715 41.064C672.715 35.9867 674.4 31.8907 677.771 28.776C681.141 25.6187 685.621 24.04 691.211 24.04C696.843 24.04 701.344 25.6187 704.715 28.776C708.085 31.8907 709.771 35.9867 709.771 41.064C709.771 46.1413 708.085 50.2587 704.715 53.416C701.344 56.5307 696.843 58.088 691.211 58.088ZM691.211 47.784C693.045 47.784 694.496 47.1653 695.563 45.928C696.629 44.6907 697.163 43.0693 697.163 41.064C697.163 39.0587 696.629 37.4373 695.563 36.2C694.496 34.9627 693.045 34.344 691.211 34.344C689.419 34.344 687.968 34.984 686.859 36.264C685.792 37.5013 685.259 39.1013 685.259 41.064C685.259 43.0267 685.792 44.648 686.859 45.928C687.968 47.1653 689.419 47.784 691.211 47.784ZM750.371 57H735.587L726.947 43.816V57H714.403V12.2H726.947V37.736L735.779 25.192H749.987L738.403 40.104L750.371 57ZM767.484 58.088C762.364 58.088 758.353 57.128 755.452 55.208C752.551 53.288 751.1 50.728 751.1 47.528H763.58C763.58 48.424 763.943 49.1493 764.668 49.704C765.393 50.2587 766.353 50.536 767.548 50.536C768.401 50.536 769.084 50.344 769.596 49.96C770.151 49.5333 770.428 48.9787 770.428 48.296C770.428 47.272 769.703 46.568 768.252 46.184L760.7 44.456C757.799 43.816 755.559 42.6853 753.98 41.064C752.444 39.4 751.676 37.3307 751.676 34.856C751.676 31.528 752.999 28.904 755.644 26.984C758.332 25.0213 761.98 24.04 766.588 24.04C771.708 24.04 775.612 24.9147 778.3 26.664C780.988 28.3707 782.332 30.824 782.332 34.024H769.98C769.98 32.1893 768.849 31.272 766.588 31.272C765.777 31.272 765.116 31.4427 764.604 31.784C764.092 32.1253 763.836 32.5947 763.836 33.192C763.836 34.3867 764.732 35.1973 766.524 35.624L774.012 37.544C779.9 39.0373 782.844 42.088 782.844 46.696C782.844 50.1947 781.457 52.968 778.684 55.016C775.911 57.064 772.177 58.088 767.484 58.088Z" fill="white"/>
<path d="M42.8452 74.0557C40.9213 76.4784 37.0206 75.151 36.9742 72.0575L36.2964 26.8116H66.7197C72.2301 26.8116 75.3034 33.1763 71.8769 37.492L42.8452 74.0557Z" fill="url(#paint0_linear_28_51)"/>
<path d="M42.8452 74.0557C40.9213 76.4784 37.0206 75.151 36.9742 72.0575L36.2964 26.8116H66.7197C72.2301 26.8116 75.3034 33.1763 71.8769 37.492L42.8452 74.0557Z" fill="url(#paint1_linear_28_51)" fill-opacity="0.2"/>
<path d="M30.4722 1.25128C32.396 -1.1717 36.2968 0.155923 36.3432 3.24945L36.6402 48.4953H6.59768C1.08704 48.4953 -1.98635 42.1306 1.44033 37.815L30.4722 1.25128Z" fill="#8D3FEF"/>
<defs>
<linearGradient id="paint0_linear_28_51" x1="44.0196" y1="36.8438" x2="61.4646" y2="44.1602" gradientUnits="userSpaceOnUse">
<stop stop-color="#7C2EE0" stop-opacity="0.976561"/>
<stop offset="1" stop-color="#9E40F7"/>
</linearGradient>
<linearGradient id="paint1_linear_28_51" x1="37.0335" y1="20.4304" x2="48.2324" y2="41.5118" gradientUnits="userSpaceOnUse">
<stop stop-color="#7C2DC7"/>
<stop offset="1" stop-opacity="0"/>
</linearGradient>
</defs>
</svg>
